<svg id="Capa_1" data-name="Capa 1" xmlns="http://www.w3.org/2000/svg" viewBox="0 0 849.9 858.2"><defs><style>.cls-1{fill:#f6951b;}.cls-1,.cls-2,.cls-3,.cls-4{stroke:#000;stroke-miterlimit:10;stroke-width:11px;}.cls-2{fill:#89c63d;}.cls-3{fill:#fff;}</style></defs><g id="Capa_2" data-name="Capa 2"><path class="cls-1" d="M986.81,252.37c-140.51-3-264.3,81.39-305.31,204.13-32.23,96.47-10.7,208.78,60,286,92.57,101.11,234.85,104.3,332,70,135.51-47.84,189-170.68,197.86-191.88-5.85,42.49-26.07,143.65-108.8,213.09-145.31,122-428,99.39-534.35-88.84-72.1-127.63-49.83-307.73,67-413.32C812.74,225.33,966,248.81,986.81,252.37Z" transform="translate(-581.41 -116.3)"/><path class="cls-2" d="M1040.89,489.28c-27.7-112.24-7.24-166.7,18-195.71,23-26.38,47.93-29.38,96.57-59.23A483.18,483.18,0,0,0,1279.09,124.9a258.08,258.08,0,0,1,63.09,168.67l-70.82,7c3.87-3.86,27.82-28.48,25.76-66.21-1.74-31.92-20.94-52-25.76-56.74-31,39.09-61.93,62.11-85,76.05-47,28.41-85.76,34-108.15,72.11-11.13,18.94-13.7,38.27-14.17,51.5,34.36-28.05,65.49-40.32,87.56-46.35,80.19-21.89,130.88,14.16,203.44-14.16,30.71-12,52.38-30.42,65.66-43.78a304,304,0,0,1,0,110.73c-5.27,28.14-26,138.61-123.6,190.56-75.78,40.36-172,31.6-249.8-19.31,16.74-70.82,45.82-98.56,69.53-110.73,41.34-21.21,79-1.71,153.23-23.18a315.16,315.16,0,0,0,69.53-29.61c-25.68,34.47-51.73,50.07-69.53,57.94-57.42,25.36-104.76,3.64-139.06,36.05-16.84,15.92-22.32,37.11-24.47,50.22,15.94,7.44,87,38.51,163.53,9,81.67-31.48,136.3-119.1,133.91-218.89a601.61,601.61,0,0,1-88.85,27c-89.45,19.85-126.62,6.54-175.11,28.33C1111.84,393.8,1073.29,421.25,1040.89,489.28Z" transform="translate(-581.41 -116.3)"/></g><g id="Capa_5" data-name="Capa 5"><path class="cls-3" d="M1132,969c-2.58,0-11.7-.58-17.58-8.11a21.4,21.4,0,0,1-4.37-13.1V853h-99.27a32.15,32.15,0,0,1-10.59-6.88A32.53,32.53,0,0,1,992,833v-48a36.48,36.48,0,0,1,18.73-18l96.27-.64,1.28-95.69A32.13,32.13,0,0,1,1128.9,650h41.82A21.36,21.36,0,0,1,1191,670v97h99.77a23.17,23.17,0,0,1,12.86,8.33A22.74,22.74,0,0,1,1308,786v44a25.5,25.5,0,0,1-17.46,22H1193l-.49,98.22a39.13,39.13,0,0,1-8.18,11.9A39.59,39.59,0,0,1,1175,969h-43Z" transform="translate(-581.41 -116.3)"/><path class="cls-4" d="M1170.26,650.23a21.28,21.28,0,0,1,14.29,6.67,21,21,0,0,1,5.45,12.65V767h100.34a22.51,22.51,0,0,1,12.41,8.1,22.18,22.18,0,0,1,4.25,10.3v44.09A24.86,24.86,0,0,1,1290.17,851H1192v1.29l-.49,97.45a38.51,38.51,0,0,1-17,18.26h-43.29c-2.56,0-11.32-.57-17-7.88a20.82,20.82,0,0,1-4.22-12.74V852h-99.79a31.29,31.29,0,0,1-10.26-6.73,32,32,0,0,1-8-12.81V785s10.2-14.19,18.25-18l47.65,1,48-1H1107v-1.29l1.29-95.48a31.66,31.66,0,0,1,20.3-20.23H1171m0-1h-42.67A32.91,32.91,0,0,0,1107,670.33L1105.71,766l-96.32.65A37.18,37.18,0,0,0,990,785.39v48.17A32.92,32.92,0,0,0,1009.4,854H1109v93.28a21.73,21.73,0,0,0,4.53,13.41c6.17,7.82,15.75,8.31,18.11,8.31H1175a39.83,39.83,0,0,0,18-19.29l.49-97.71H1291a26.16,26.16,0,0,0,18-22.72V785.57a23.52,23.52,0,0,0-4.5-11,23.92,23.92,0,0,0-13.28-8.62H1192V669.61a22.34,22.34,0,0,0-5.79-13.52A22.66,22.66,0,0,0,1171,649Z" transform="translate(-581.41 -116.3)"/></g></svg>